<svg width="256" height="256" viewBox="0 0 256 256" fill="none" xmlns="http://www.w3.org/2000/svg">
<path d="M0 14C0 6.26801 6.26801 0 14 0H242C249.732 0 256 6.26801 256 14V242C256 249.732 249.732 256 242 256H14C6.26801 256 0 249.732 0 242V14Z" fill="#4ADE80"/>
<path d="M17.05 85.69C17.05 81.49 17.68 77.83 18.94 74.71C20.26 71.53 21.97 68.89 24.07 66.79C26.17 64.69 28.57 63.1 31.27 62.02C34.03 60.94 36.85 60.4 39.73 60.4C46.45 60.4 51.76 62.47 55.66 66.61C59.56 70.69 61.51 76.72 61.51 84.7C61.51 85.48 61.48 86.35 61.42 87.31C61.36 88.21 61.3 89.02 61.24 89.74H30.82C31.12 92.5 32.41 94.69 34.69 96.31C36.97 97.93 40.03 98.74 43.87 98.74C46.33 98.74 48.73 98.53 51.07 98.11C53.47 97.63 55.42 97.06 56.92 96.4L58.72 107.29C58 107.65 57.04 108.01 55.84 108.37C54.64 108.73 53.29 109.03 51.79 109.27C50.35 109.57 48.79 109.81 47.11 109.99C45.43 110.17 43.75 110.26 42.07 110.26C37.81 110.26 34.09 109.63 30.91 108.37C27.79 107.11 25.18 105.4 23.08 103.24C21.04 101.02 19.51 98.41 18.49 95.41C17.53 92.41 17.05 89.17 17.05 85.69ZM48.55 80.56C48.49 79.42 48.28 78.31 47.92 77.23C47.62 76.15 47.11 75.19 46.39 74.35C45.73 73.51 44.86 72.82 43.78 72.28C42.76 71.74 41.47 71.47 39.91 71.47C38.41 71.47 37.12 71.74 36.04 72.28C34.96 72.76 34.06 73.42 33.34 74.26C32.62 75.1 32.05 76.09 31.63 77.23C31.27 78.31 31 79.42 30.82 80.56H48.55Z" fill="#F5F5F0"/>
<path d="M71.8586 63.28C74.1386 62.62 77.0786 62.02 80.6786 61.48C84.2786 60.88 88.0586 60.58 92.0186 60.58C96.0386 60.58 99.3686 61.12 102.009 62.2C104.709 63.22 106.839 64.69 108.399 66.61C109.959 68.53 111.069 70.81 111.729 73.45C112.389 76.09 112.719 79.03 112.719 82.27V109H99.3086V83.89C99.3086 79.57 98.7386 76.51 97.5986 74.71C96.4586 72.91 94.3286 72.01 91.2086 72.01C90.2486 72.01 89.2286 72.07 88.1486 72.19C87.0686 72.25 86.1086 72.34 85.2686 72.46V109H71.8586V63.28Z" fill="#F5F5F0"/>
<path d="M136.287 84.97C136.287 89.11 137.217 92.44 139.077 94.96C140.937 97.48 143.697 98.74 147.357 98.74C148.557 98.74 149.667 98.71 150.687 98.65C151.707 98.53 152.547 98.41 153.207 98.29V73.9C152.367 73.36 151.257 72.91 149.877 72.55C148.557 72.19 147.207 72.01 145.827 72.01C139.467 72.01 136.287 76.33 136.287 84.97ZM166.617 107.47C165.417 107.83 164.037 108.19 162.477 108.55C160.917 108.85 159.267 109.12 157.527 109.36C155.847 109.6 154.107 109.78 152.307 109.9C150.567 110.08 148.887 110.17 147.267 110.17C143.367 110.17 139.887 109.6 136.827 108.46C133.767 107.32 131.187 105.7 129.087 103.6C126.987 101.44 125.367 98.86 124.227 95.86C123.147 92.8 122.607 89.38 122.607 85.6C122.607 81.76 123.087 78.31 124.047 75.25C125.007 72.13 126.387 69.49 128.187 67.33C129.987 65.17 132.177 63.52 134.757 62.38C137.397 61.24 140.397 60.67 143.757 60.67C145.617 60.67 147.267 60.85 148.707 61.21C150.207 61.57 151.707 62.08 153.207 62.74V41.32L166.617 39.16V107.47Z" fill="#F5F5F0"/>
<path d="M49.63 188.69C49.63 184.55 48.7 181.25 46.84 178.79C44.98 176.27 42.22 175.01 38.56 175.01C37.36 175.01 36.25 175.07 35.23 175.19C34.21 175.25 33.37 175.34 32.71 175.46V199.67C33.55 200.21 34.63 200.66 35.95 201.02C37.33 201.38 38.71 201.56 40.09 201.56C46.45 201.56 49.63 197.27 49.63 188.69ZM63.31 188.33C63.31 191.99 62.86 195.32 61.96 198.32C61.06 201.32 59.74 203.9 58 206.06C56.26 208.22 54.1 209.9 51.52 211.1C48.94 212.3 45.97 212.9 42.61 212.9C40.75 212.9 39.01 212.72 37.39 212.36C35.77 212 34.21 211.49 32.71 210.83V228.65H19.3V166.28C20.5 165.92 21.88 165.59 23.44 165.29C25 164.93 26.62 164.63 28.3 164.39C30.04 164.15 31.78 163.97 33.52 163.85C35.32 163.67 37.03 163.58 38.65 163.58C42.55 163.58 46.03 164.18 49.09 165.38C52.15 166.52 54.73 168.17 56.83 170.33C58.93 172.43 60.52 175.01 61.6 178.07C62.74 181.13 63.31 184.55 63.31 188.33Z" fill="#F5F5F0"/>
<path d="M117.896 188.24C117.896 191.96 117.356 195.38 116.276 198.5C115.196 201.56 113.636 204.2 111.596 206.42C109.556 208.58 107.096 210.26 104.216 211.46C101.396 212.66 98.2164 213.26 94.6764 213.26C91.1964 213.26 88.0164 212.66 85.1364 211.46C82.3164 210.26 79.8864 208.58 77.8464 206.42C75.8064 204.2 74.2164 201.56 73.0764 198.5C71.9364 195.38 71.3664 191.96 71.3664 188.24C71.3664 184.52 71.9364 181.13 73.0764 178.07C74.2764 175.01 75.8964 172.4 77.9364 170.24C80.0364 168.08 82.4964 166.4 85.3164 165.2C88.1964 164 91.3164 163.4 94.6764 163.4C98.0964 163.4 101.216 164 104.036 165.2C106.916 166.4 109.376 168.08 111.416 170.24C113.456 172.4 115.046 175.01 116.186 178.07C117.326 181.13 117.896 184.52 117.896 188.24ZM104.216 188.24C104.216 184.1 103.376 180.86 101.696 178.52C100.076 176.12 97.7364 174.92 94.6764 174.92C91.6164 174.92 89.2464 176.12 87.5664 178.52C85.8864 180.86 85.0464 184.1 85.0464 188.24C85.0464 192.38 85.8864 195.68 87.5664 198.14C89.2464 200.54 91.6164 201.74 94.6764 201.74C97.7364 201.74 100.076 200.54 101.696 198.14C103.376 195.68 104.216 192.38 104.216 188.24Z" fill="#F5F5F0"/>
<path d="M141.694 212H128.284V164.66H141.694V212ZM142.954 150.98C142.954 153.44 142.144 155.39 140.524 156.83C138.964 158.21 137.104 158.9 134.944 158.9C132.784 158.9 130.894 158.21 129.274 156.83C127.714 155.39 126.934 153.44 126.934 150.98C126.934 148.52 127.714 146.6 129.274 145.22C130.894 143.78 132.784 143.06 134.944 143.06C137.104 143.06 138.964 143.78 140.524 145.22C142.144 146.6 142.954 148.52 142.954 150.98Z" fill="#F5F5F0"/>
<path d="M154.3 166.28C156.58 165.62 159.52 165.02 163.12 164.48C166.72 163.88 170.5 163.58 174.46 163.58C178.48 163.58 181.81 164.12 184.45 165.2C187.15 166.22 189.28 167.69 190.84 169.61C192.4 171.53 193.51 173.81 194.17 176.45C194.83 179.09 195.16 182.03 195.16 185.27V212H181.75V186.89C181.75 182.57 181.18 179.51 180.04 177.71C178.9 175.91 176.77 175.01 173.65 175.01C172.69 175.01 171.67 175.07 170.59 175.19C169.51 175.25 168.55 175.34 167.71 175.46V212H154.3V166.28Z" fill="#F5F5F0"/>
<path d="M206.848 152.87L220.258 150.71V164.66H236.368V175.82H220.258V192.47C220.258 195.29 220.738 197.54 221.698 199.22C222.718 200.9 224.728 201.74 227.728 201.74C229.168 201.74 230.638 201.62 232.138 201.38C233.698 201.08 235.108 200.69 236.368 200.21L238.258 210.65C236.638 211.31 234.838 211.88 232.858 212.36C230.878 212.84 228.448 213.08 225.568 213.08C221.908 213.08 218.878 212.6 216.478 211.64C214.078 210.62 212.158 209.24 210.718 207.5C209.278 205.7 208.258 203.54 207.658 201.02C207.118 198.5 206.848 195.71 206.848 192.65V152.87Z" fill="#F5F5F0"/>
<path d="M234 78C234 91.8071 222.807 103 209 103C195.193 103 184 91.8071 184 78C184 64.1929 195.193 53 209 53C222.807 53 234 64.1929 234 78Z" fill="#333131"/>
</svg>
