<svg
        xmlns="http://www.w3.org/2000/svg"
        xmlns:xlink="http://www.w3.org/1999/xlink"
        version="1.1"
        x="0px"
        y="0px"
        viewBox="0 0 256 256"
        enable-background="new 0 0 256 256"
        xml:space="preserve"
      >
        <g>
          <g>
            <g>
              <path
                fill="#000000"
                d="M122.5,75.3C1.9,113.5,10.1,110.7,10.1,114.6c0,1,0.3,2.3,0.8,2.9C11.5,118.4,44,144.8,46,146c0.3,0.2,3.6-1.4,7.8-3.7C217.1,49.7,234,40.1,233,40.3C232.8,40.3,183.1,56,122.5,75.3z"
              />
              <path
                fill="#000000"
                d="M169.5,107.1l-76.4,59.5l-0.1,6.1l-0.1,6.1l19.5,18c10.9,10,20.2,18.2,21.2,18.6c1.5,0.6,1.8,0.5,3.5-0.2c1.7-0.8,7.2-9.2,55.5-84.1C222,85.3,246.1,47.8,246,47.8C245.9,47.7,211.5,74.4,169.5,107.1z"
              />
              <path
                fill="#000000"
                d="M121.9,115.5l-70.9,40.2l0.1,22.8l0.1,22.8l1.6,1.4c1.6,1.4,3.8,1.8,5.7,1.1c0.4-0.2,5.9-6.2,12.2-13.5l11.4-13.1v-6.8c0-5.1,0.2-7.2,0.7-8.3c0.5-1.1,16.6-13.9,55.5-44.1c48.6-37.8,55.1-42.9,54.6-42.9C192.9,75.3,160.9,93.4,121.9,115.5z"
              />
            </g>
          </g>
        </g>
      </svg>