<svg
      
          xmlns="http://www.w3.org/2000/svg"
          viewBox="0 0 16 16"
        >
          <path
            fill-rule="evenodd"
            clip-rule="evenodd"
            d="M2 3a1 1 0 1 1 2 0 1 1 0 0 1-2 0Zm2 2.25a.75.75 0 0 1 .75-.75h2a.75.75 0 0 1 0 1.5h-2A.75.75 0 0 1 4 5.25Zm4.5 0a.75.75 0 0 1 .75-.75h4a.75.75 0 0 1 0 1.5h-4a.75.75 0 0 1-.75-.75Zm-4.5 3a.75.75 0 0 1 .75-.75h2a.75.75 0 0 1 0 1.5h-2A.75.75 0 0 1 4 8.25Zm4.5 0a.75.75 0 0 1 .75-.75H11A.75.75 0 0 1 11 9H9.25a.75.75 0 0 1-.75-.75Zm-4.5 3a.75.75 0 0 1 .75-.75h2a.75.75 0 0 1 0 1.5h-2a.75.75 0 0 1-.75-.75Zm4.5 0a.75.75 0 0 1 .75-.75h4a.75.75 0 0 1 0 1.5h-4a.75.75 0 0 1-.75-.75ZM3 12.5a1 1 0 1 0 0 2 1 1 0 0 0 0-2Z"
            fill="currentColor"
          ></path>
        </svg>